<?xml version="1.0" standalone="no"?><!DOCTYPE svg PUBLIC "-//W3C//DTD SVG 1.1//EN" "http://www.w3.org/Graphics/SVG/1.1/DTD/svg11.dtd"><svg t="1669947683091" class="icon" viewBox="0 0 1024 1024" version="1.1" xmlns="http://www.w3.org/2000/svg" p-id="2706" xmlns:xlink="http://www.w3.org/1999/xlink" width="200" height="200"><path d="M108.639391 306.270091h50.99502v136.08671h-50.99502zM108.639391 578.443511h50.99502v135.086808h-50.99502z" fill="#34d399" p-id="2707"></path><path d="M986.653647 130.487257v765.925203c0 70.393126-57.194415 127.58754-127.58754 127.58754l-622.939166-2.799727c-70.393126 0-127.58754-57.194415-127.587541-127.58754v-43.995703h50.99502v43.995703c0 42.195879 34.296651 76.59252 76.592521 76.59252l622.939166 2.799727c42.195879 0 76.59252-34.296651 76.59252-76.59252v-765.925203c0-42.195879-34.296651-76.59252-76.59252-76.59252l-622.939166-2.799727c-42.195879 0-76.59252 34.296651-76.592521 76.592521v42.49585h-50.99502v-42.49585C108.5394 57.294405 165.733815 0.09999 236.126941 0.09999l622.939166 2.799727c70.393126 0 127.58754 57.294405 127.58754 127.58754z" fill="#34d399" p-id="2708"></path><path d="M37.546333 754.626306h183.682063v50.99502H37.546333zM37.546333 212.179279h183.682063v50.99502H37.546333zM37.546333 484.952641h183.682063v50.99502H37.546333zM308.2199 449.656088h531.248121v50.99502H308.2199zM308.2199 246.775901h531.248121v50.99502H308.2199zM308.2199 656.335905h315.569183v50.99502H308.2199zM808.171077 646.536862L762.975491 747.227029l-44.095694-100.690167h-58.694268l74.192754 101.490088h-54.494678v33.996681h68.793282V816.920223h-68.793282v33.496728h68.793282v68.293331h33.99668v-68.293331H850.966898V816.920223h-68.293331v-34.796602H850.966898v-33.99668h-60.294112l86.891514-101.490089h-69.393223z" fill="#34d399" p-id="2709"></path></svg>